<svg width="206" height="90" viewBox="0 0 206 90" fill="none" xmlns="http://www.w3.org/2000/svg">
<path d="M29.2859 82.8024C24.1508 82.8024 19.4169 81.9465 15.0842 80.2348C10.805 78.4696 7.46188 76.0626 5.05482 73.0136C4.6269 72.4787 4.41294 71.9171 4.41294 71.3287C4.41294 70.5798 4.81412 69.8577 5.61647 69.1624C6.04439 68.8414 6.49906 68.6809 6.98047 68.6809C7.94329 68.6809 8.79914 69.1356 9.548 70.0449C11.7411 72.452 14.4958 74.3242 17.8122 75.6614C21.1821 76.9452 25.0067 77.5871 29.2859 77.5871C33.993 77.5871 37.6304 76.7312 40.1979 75.0195C42.7654 73.2544 44.0492 70.7671 44.0492 67.5576C44.0492 64.7762 42.7922 62.5296 40.2781 60.8179C37.8176 59.1062 33.6186 57.5817 27.6812 56.2445C19.9251 54.5328 14.3354 52.3932 10.912 49.8256C7.54212 47.2046 5.85718 43.7545 5.85718 39.4753C5.85718 35.0356 7.72933 31.532 11.4736 28.9645C15.2715 26.3434 20.3798 25.0329 26.7986 25.0329C31.6662 25.0329 36.0524 25.8888 39.9572 27.6005C43.9155 29.3122 46.7237 31.6122 48.3819 34.5007C48.7028 35.0356 48.8633 35.5438 48.8633 36.0252C48.8633 36.881 48.4086 37.6299 47.4993 38.2718C47.1249 38.4857 46.6969 38.5927 46.2155 38.5927C45.0387 38.5927 44.1294 38.138 43.4875 37.2287C41.9363 34.9821 39.7432 33.2704 36.9082 32.0936C34.0733 30.8634 30.7034 30.2482 26.7986 30.2482C16.9029 30.2482 11.9551 33.3239 11.9551 39.4753C11.9551 41.3474 12.4632 42.9254 13.4795 44.2092C14.4958 45.4394 16.1273 46.5627 18.3739 47.5791C20.674 48.5419 23.8566 49.5047 27.9219 50.4675C35.8384 52.3397 41.5351 54.613 45.012 57.2875C48.4889 59.9085 50.2273 63.3319 50.2273 67.5576C50.2273 72.2648 48.3284 75.9824 44.5306 78.7104C40.7863 81.4384 35.7047 82.8024 29.2859 82.8024Z" fill="white"/>
<path d="M73.7204 43.2916C71.699 43.2916 69.9205 42.8639 68.385 42.0087C66.8689 41.1341 65.693 39.9095 64.8572 38.3351C64.0214 36.7413 63.6035 34.9045 63.6035 32.8248C63.6035 30.7256 64.0214 28.8791 64.8572 27.2853C65.693 25.6914 66.8689 24.4669 68.385 23.6117C69.9205 22.737 71.6893 22.2997 73.6913 22.2997C75.3629 22.2997 76.8984 22.5815 78.2978 23.1452C79.7167 23.7089 80.8246 24.4961 81.6215 25.5068C81.777 25.6817 81.8548 25.8955 81.8548 26.1482C81.8548 26.4592 81.7187 26.7119 81.4466 26.9063C81.2717 27.0229 81.0773 27.0812 80.8635 27.0812C80.4942 27.0812 80.1832 26.9354 79.9305 26.6439C79.3086 25.8469 78.463 25.2347 77.394 24.8071C76.325 24.3795 75.0907 24.1656 73.6913 24.1656C72.078 24.1656 70.6786 24.5155 69.4929 25.2152C68.3073 25.915 67.3937 26.916 66.7523 28.2182C66.1303 29.5205 65.8193 31.056 65.8193 32.8248C65.8193 34.5741 66.1303 36.0999 66.7523 37.4022C67.3937 38.685 68.3073 39.6763 69.4929 40.376C70.698 41.0757 72.1072 41.4256 73.7204 41.4256C75.2171 41.4256 76.5194 41.2118 77.6273 40.7842C78.7546 40.3371 79.639 39.7249 80.2804 38.9474C80.572 38.6364 80.8829 38.4809 81.2134 38.4809C81.4466 38.4809 81.641 38.549 81.7965 38.685C82.0686 38.9183 82.2047 39.1709 82.2047 39.443C82.2047 39.6763 82.1172 39.8998 81.9423 40.1136C81.1453 41.0855 80.0083 41.8629 78.5311 42.446C77.0733 43.0097 75.4698 43.2916 73.7204 43.2916ZM94.3936 43.2916C92.6638 43.2916 91.1574 42.9514 89.8746 42.2711C88.6112 41.5908 87.6393 40.6093 86.959 39.3264C86.2787 38.0436 85.9386 36.5178 85.9386 34.749V23.4659C85.9386 23.0966 86.0358 22.8148 86.2301 22.6204C86.4245 22.4066 86.6869 22.2997 87.0173 22.2997C87.3672 22.2997 87.6393 22.4066 87.8337 22.6204C88.0281 22.8148 88.1252 23.0966 88.1252 23.4659V34.8365C88.1252 36.9357 88.6792 38.5587 89.7871 39.7054C90.895 40.8522 92.4499 41.4256 94.4519 41.4256C96.4734 41.4256 98.0478 40.8522 99.1751 39.7054C100.322 38.5392 100.895 36.9163 100.895 34.8365V23.4659C100.895 23.0966 100.992 22.8148 101.187 22.6204C101.401 22.4066 101.673 22.2997 102.003 22.2997C102.353 22.2997 102.615 22.4066 102.79 22.6204C102.985 22.8148 103.082 23.0966 103.082 23.4659V34.749C103.082 36.4595 102.732 37.9658 102.032 39.2681C101.333 40.551 100.322 41.5422 99.0002 42.242C97.6979 42.9417 96.1624 43.2916 94.3936 43.2916ZM111.371 43C110.185 43 109.262 42.689 108.601 42.067C107.94 41.4256 107.61 40.551 107.61 39.443V26.0899C107.61 25.0014 107.931 24.1462 108.572 23.5242C109.233 22.9023 110.146 22.5913 111.313 22.5913H118.222C120.186 22.5913 121.711 23.0772 122.8 24.049C123.888 25.0209 124.433 26.3912 124.433 28.1599C124.433 29.1706 124.17 30.055 123.645 30.8131C123.121 31.5517 122.401 32.1153 121.488 32.5041V32.5624C122.518 32.9317 123.325 33.5148 123.908 34.3117C124.491 35.0892 124.782 36.0124 124.782 37.0815C124.782 38.9085 124.228 40.3566 123.121 41.4256C122.013 42.4752 120.497 43 118.572 43H111.371ZM118.456 31.6877C119.602 31.6877 120.516 31.367 121.196 30.7256C121.877 30.0842 122.217 29.229 122.217 28.1599C122.217 26.9354 121.877 26.0024 121.196 25.361C120.516 24.7196 119.525 24.3989 118.222 24.3989H111.342C110.895 24.3989 110.525 24.5641 110.234 24.8945C109.942 25.2055 109.797 25.604 109.797 26.0899V31.6877H118.456ZM118.456 41.1632C119.797 41.1632 120.817 40.8231 121.517 40.1428C122.217 39.443 122.567 38.4323 122.567 37.1106C122.567 35.9638 122.197 35.0697 121.459 34.4283C120.72 33.7869 119.709 33.4662 118.427 33.4662H109.797V39.5014C109.797 39.9873 109.942 40.3857 110.234 40.6967C110.525 41.0077 110.895 41.1632 111.342 41.1632H118.456ZM132.469 43C131.283 43 130.36 42.689 129.699 42.067C129.038 41.445 128.708 40.5704 128.708 39.443V26.0899C128.708 25.0014 129.028 24.1462 129.67 23.5242C130.331 22.9023 131.244 22.5913 132.41 22.5913H141.449C142.207 22.5913 142.586 22.9023 142.586 23.5242C142.586 23.7963 142.488 24.0102 142.294 24.1656C142.1 24.3211 141.818 24.3989 141.449 24.3989H132.44C131.973 24.3989 131.594 24.5544 131.302 24.8654C131.03 25.1764 130.894 25.5845 130.894 26.0899V31.6586H139.233C139.991 31.6586 140.37 31.9696 140.37 32.5915C140.37 32.8831 140.263 33.1066 140.049 33.2621C139.855 33.4176 139.583 33.4954 139.233 33.4954H130.894V39.5014C130.894 40.0067 131.03 40.4149 131.302 40.7259C131.594 41.0369 131.973 41.1924 132.44 41.1924H142.09C142.848 41.1924 143.227 41.4936 143.227 42.0962C143.227 42.3877 143.12 42.6113 142.906 42.7668C142.712 42.9223 142.44 43 142.09 43H132.469Z" fill="white"/>
<path d="M72.7 82.2916C71.5144 82.2916 70.5717 81.8348 69.8719 80.9213C69.1722 79.9883 68.5114 78.4916 67.8894 76.4313L63.7202 62.6117C63.6619 62.3979 63.6327 62.223 63.6327 62.0869C63.6327 61.5621 63.9728 61.2997 64.6531 61.2997C65.003 61.2997 65.2654 61.3775 65.4403 61.533C65.6153 61.669 65.761 61.9411 65.8777 62.3493L70.0177 76.2272C70.4842 77.7822 70.9118 78.8804 71.3006 79.5218C71.7087 80.1438 72.1752 80.4548 72.7 80.4548C73.2054 80.4548 73.6621 80.1341 74.0703 79.4926C74.4785 78.8512 74.9158 77.7628 75.3823 76.2272L79.5224 62.3201C79.639 61.9314 79.7848 61.669 79.9597 61.533C80.1346 61.3775 80.397 61.2997 80.7469 61.2997C81.4272 61.2997 81.7673 61.5621 81.7673 62.0869C81.7673 62.223 81.7382 62.3979 81.6799 62.6117L77.4815 76.4313C76.8206 78.5888 76.1306 80.1049 75.4115 80.9796C74.7117 81.8542 73.8079 82.2916 72.7 82.2916ZM86.9977 64.3319C86.5701 64.3319 86.2008 64.1958 85.8898 63.9237C85.5983 63.6321 85.4525 63.2823 85.4525 62.8741C85.4525 62.4659 85.5983 62.1161 85.8898 61.8245C86.2008 61.533 86.5701 61.3872 86.9977 61.3872C87.4254 61.3872 87.7947 61.5427 88.1056 61.8537C88.4361 62.1452 88.6013 62.4854 88.6013 62.8741C88.6013 63.2628 88.4361 63.603 88.1056 63.8945C87.7947 64.1861 87.4254 64.3319 86.9977 64.3319ZM86.9977 82.2916C86.6673 82.2916 86.4049 82.1944 86.2105 82C86.0356 81.7862 85.9482 81.4946 85.9482 81.1253V68.5885C85.9482 68.2192 86.0356 67.9374 86.2105 67.743C86.4049 67.5292 86.6673 67.4223 86.9977 67.4223C87.3476 67.4223 87.61 67.5292 87.7849 67.743C87.9793 67.9374 88.0765 68.2192 88.0765 68.5885V81.1253C88.0765 81.4946 87.9793 81.7862 87.7849 82C87.61 82.1944 87.3476 82.2916 86.9977 82.2916ZM93.7909 82.2916C93.4605 82.2916 93.1981 82.1944 93.0037 82C92.8288 81.7862 92.7413 81.4946 92.7413 81.1253V68.5885C92.7413 68.2192 92.8288 67.9374 93.0037 67.743C93.1787 67.5292 93.4411 67.4223 93.7909 67.4223C94.1214 67.4223 94.374 67.5292 94.549 67.743C94.7433 67.9374 94.8405 68.2192 94.8405 68.5885V70.3379C96.1622 68.5885 97.9893 67.7139 100.322 67.7139H101.051C101.42 67.7139 101.711 67.8013 101.925 67.9763C102.139 68.1318 102.246 68.3553 102.246 68.6469C102.246 68.9384 102.139 69.1619 101.925 69.3174C101.711 69.4729 101.42 69.5507 101.051 69.5507H100.234C98.5821 69.5507 97.2701 70.0269 96.2983 70.9793C95.3459 71.9123 94.8697 73.1854 94.8697 74.7986V81.1253C94.8697 81.4752 94.7725 81.757 94.5781 81.9708C94.4032 82.1847 94.1408 82.2916 93.7909 82.2916ZM114.294 79.1136C114.508 79.2886 114.615 79.4926 114.615 79.7259C114.615 79.9203 114.528 80.1535 114.353 80.4256C113.945 80.9893 113.381 81.446 112.662 81.7959C111.943 82.1263 111.204 82.2916 110.446 82.2916C109.163 82.2916 108.152 81.9125 107.414 81.1545C106.675 80.3965 106.306 79.3566 106.306 78.0349V69.4924H104.731C103.954 69.4924 103.565 69.1911 103.565 68.5885C103.565 68.3164 103.662 68.1026 103.857 67.9471C104.071 67.7916 104.362 67.7139 104.731 67.7139H106.306V62.7283C106.306 62.359 106.393 62.0772 106.568 61.8828C106.763 61.669 107.035 61.5621 107.385 61.5621C107.715 61.5621 107.968 61.669 108.143 61.8828C108.337 62.0772 108.434 62.359 108.434 62.7283V67.7139H112.399C112.749 67.7139 113.021 67.7916 113.216 67.9471C113.429 68.0832 113.536 68.297 113.536 68.5885C113.536 69.1911 113.157 69.4924 112.399 69.4924H108.434V78.2098C108.434 79.7064 109.134 80.4548 110.533 80.4548C110.98 80.4548 111.389 80.3673 111.758 80.1924C112.127 80.0174 112.497 79.7356 112.866 79.3469C113.157 79.0359 113.439 78.8804 113.711 78.8804C113.886 78.8804 114.081 78.9581 114.294 79.1136ZM123.716 82.2916C121.811 82.2916 120.314 81.7473 119.226 80.6589C118.157 79.5704 117.622 78.0543 117.622 76.1106V68.5885C117.622 68.2192 117.72 67.9374 117.914 67.743C118.108 67.5292 118.371 67.4223 118.701 67.4223C119.032 67.4223 119.284 67.5292 119.459 67.743C119.654 67.9374 119.751 68.2192 119.751 68.5885V76.1106C119.751 77.4906 120.12 78.5597 120.859 79.3177C121.597 80.0757 122.627 80.4548 123.949 80.4548C124.999 80.4548 125.932 80.2215 126.748 79.755C127.564 79.2886 128.196 78.6374 128.643 77.8016C129.11 76.9658 129.343 76.0037 129.343 74.9153V68.5885C129.343 68.2192 129.43 67.9374 129.605 67.743C129.8 67.5292 130.072 67.4223 130.422 67.4223C130.752 67.4223 131.005 67.5292 131.18 67.743C131.374 67.9374 131.471 68.2192 131.471 68.5885V81.1253C131.471 81.4946 131.374 81.7862 131.18 82C131.005 82.1944 130.752 82.2916 130.422 82.2916C130.072 82.2916 129.8 82.1847 129.605 81.9708C129.43 81.757 129.343 81.4752 129.343 81.1253V79.4052C128.624 80.3381 127.788 81.0573 126.836 81.5627C125.883 82.0486 124.843 82.2916 123.716 82.2916ZM140.898 82.2916C138.993 82.2916 137.497 81.8737 136.408 81.0379C135.339 80.2021 134.805 79.0456 134.805 77.5684C134.805 76.1106 135.368 74.9541 136.496 74.0989C137.642 73.2437 139.197 72.8161 141.16 72.8161C142.307 72.8161 143.318 72.9716 144.193 73.2826C145.087 73.5935 145.777 74.0114 146.263 74.5362V72.6703C146.263 71.5624 145.893 70.7169 145.155 70.1338C144.436 69.5507 143.376 69.2591 141.977 69.2591C140.169 69.2591 138.604 69.6867 137.283 70.542C136.952 70.7363 136.68 70.8335 136.466 70.8335C136.272 70.8335 136.078 70.7558 135.883 70.6003C135.669 70.4253 135.563 70.2018 135.563 69.9297C135.563 69.6381 135.689 69.3952 135.942 69.2008C136.641 68.6566 137.526 68.229 138.595 67.918C139.683 67.5875 140.791 67.4223 141.918 67.4223C143.979 67.4223 145.573 67.8888 146.7 68.8218C147.847 69.7548 148.42 71.0667 148.42 72.7578V81.1545C148.42 81.9125 148.07 82.2916 147.37 82.2916C147.059 82.2916 146.807 82.1944 146.612 82C146.418 81.7862 146.321 81.5141 146.321 81.1837V80.1341C145.116 81.5724 143.308 82.2916 140.898 82.2916ZM141.16 80.5131C142.676 80.5131 143.911 80.2312 144.863 79.6676C145.816 79.0845 146.292 78.3361 146.292 77.4226C146.292 76.5091 145.845 75.8093 144.951 75.3234C144.076 74.8181 142.832 74.5654 141.219 74.5654C139.858 74.5654 138.809 74.8278 138.07 75.3526C137.331 75.8579 136.962 76.5965 136.962 77.5684C136.962 78.5208 137.322 79.2497 138.041 79.755C138.76 80.2604 139.8 80.5131 141.16 80.5131ZM154.023 82.2916C153.692 82.2916 153.43 82.1944 153.236 82C153.061 81.7862 152.973 81.4946 152.973 81.1253V61.0373C152.973 60.668 153.061 60.3862 153.236 60.1918C153.43 59.978 153.692 59.8711 154.023 59.8711C154.353 59.8711 154.616 59.978 154.81 60.1918C155.004 60.3862 155.102 60.668 155.102 61.0373V81.1253C155.102 81.4752 155.004 81.757 154.81 81.9708C154.635 82.1847 154.373 82.2916 154.023 82.2916ZM161.367 64.3319C160.939 64.3319 160.57 64.1958 160.259 63.9237C159.967 63.6321 159.821 63.2823 159.821 62.8741C159.821 62.4659 159.967 62.1161 160.259 61.8245C160.57 61.533 160.939 61.3872 161.367 61.3872C161.794 61.3872 162.164 61.5427 162.475 61.8537C162.805 62.1452 162.97 62.4854 162.97 62.8741C162.97 63.2628 162.805 63.603 162.475 63.8945C162.164 64.1861 161.794 64.3319 161.367 64.3319ZM161.367 82.2916C161.036 82.2916 160.774 82.1944 160.579 82C160.405 81.7862 160.317 81.4946 160.317 81.1253V68.5885C160.317 68.2192 160.405 67.9374 160.579 67.743C160.774 67.5292 161.036 67.4223 161.367 67.4223C161.716 67.4223 161.979 67.5292 162.154 67.743C162.348 67.9374 162.445 68.2192 162.445 68.5885V81.1253C162.445 81.4946 162.348 81.7862 162.154 82C161.979 82.1944 161.716 82.2916 161.367 82.2916ZM176.819 79.1136C177.033 79.2886 177.14 79.4926 177.14 79.7259C177.14 79.9203 177.052 80.1535 176.877 80.4256C176.469 80.9893 175.905 81.446 175.186 81.7959C174.467 82.1263 173.728 82.2916 172.97 82.2916C171.688 82.2916 170.677 81.9125 169.938 81.1545C169.2 80.3965 168.83 79.3566 168.83 78.0349V69.4924H167.256C166.479 69.4924 166.09 69.1911 166.09 68.5885C166.09 68.3164 166.187 68.1026 166.381 67.9471C166.595 67.7916 166.887 67.7139 167.256 67.7139H168.83V62.7283C168.83 62.359 168.918 62.0772 169.093 61.8828C169.287 61.669 169.559 61.5621 169.909 61.5621C170.24 61.5621 170.492 61.669 170.667 61.8828C170.862 62.0772 170.959 62.359 170.959 62.7283V67.7139H174.924C175.274 67.7139 175.546 67.7916 175.74 67.9471C175.954 68.0832 176.061 68.297 176.061 68.5885C176.061 69.1911 175.682 69.4924 174.924 69.4924H170.959V78.2098C170.959 79.7064 171.658 80.4548 173.058 80.4548C173.505 80.4548 173.913 80.3673 174.282 80.1924C174.652 80.0174 175.021 79.7356 175.39 79.3469C175.682 79.0359 175.964 78.8804 176.236 78.8804C176.411 78.8804 176.605 78.9581 176.819 79.1136ZM186.794 89.2888C185.356 89.2888 184.073 89.075 182.946 88.6474C181.819 88.2198 180.993 87.6367 180.468 86.8981C180.332 86.7037 180.264 86.5094 180.264 86.315C180.264 86.004 180.419 85.7319 180.73 85.4986C180.847 85.4015 181.022 85.3529 181.255 85.3529C181.585 85.3529 181.896 85.5084 182.188 85.8193C182.615 86.3247 183.237 86.7232 184.054 87.0147C184.89 87.3257 185.774 87.4812 186.707 87.4812C188.456 87.4812 189.836 86.9564 190.847 85.9068C191.877 84.8572 192.392 83.4383 192.392 81.6501V79.6676C191.79 80.4645 191.022 81.0767 190.089 81.5044C189.156 81.9125 188.126 82.1166 186.999 82.1166C184.627 82.1166 182.771 81.446 181.43 80.1049C180.108 78.7443 179.447 76.8589 179.447 74.4488V68.5011C179.447 68.2095 179.554 67.9666 179.768 67.7722C179.982 67.5584 180.244 67.4515 180.555 67.4515C180.866 67.4515 181.119 67.5584 181.313 67.7722C181.527 67.9666 181.634 68.2095 181.634 68.5011V74.4488C181.634 76.3147 182.1 77.7725 183.033 78.8221C183.986 79.8522 185.307 80.3673 186.999 80.3673C188.67 80.3673 189.963 79.8717 190.876 78.8804C191.79 77.8891 192.246 76.4799 192.246 74.6529V68.7926C192.246 68.365 192.344 68.0346 192.538 67.8013C192.752 67.5487 193.043 67.4223 193.413 67.4223C193.763 67.4223 194.035 67.5487 194.229 67.8013C194.443 68.0346 194.55 68.365 194.55 68.7926V81.5044C194.55 83.0399 194.219 84.3907 193.558 85.557C192.917 86.7426 192.013 87.6561 190.847 88.2976C189.681 88.9584 188.33 89.2888 186.794 89.2888Z" fill="white"/>
</svg>
